<svg width="400" height="400" viewBox="0 0 400 400" fill="none" xmlns="http://www.w3.org/2000/svg">
<circle cx="200" cy="200" r="200" fill="white"/>
<path d="M368.852 200.12C369.335 199.637 369.335 199.637 368.852 199.153C368.852 106.819 301.655 25.12 199.169 25.12C96.683 25.12 28.52 107.786 28.52 200.12V201.087C28.52 293.421 95.7161 375.12 198.202 375.12C300.689 375.12 368.852 292.454 368.852 200.12ZM342.747 201.087C342.747 284.719 282.802 352.399 199.169 352.399C115.537 352.399 54.625 283.753 54.625 200.12V199.153C54.625 115.521 114.57 47.841 198.202 47.841C281.835 47.841 342.747 116.487 342.747 200.12V201.087Z" fill="black"/>
<g clip-path="url(#clip0)">
<path d="M268.178 155.371H233.935V139.789C233.935 131.141 226.316 124.207 216.814 124.207H182.572C173.069 124.207 165.45 131.141 165.45 139.789V155.371H131.208C121.705 155.371 114.172 162.305 114.172 170.953L114.086 256.653C114.086 265.301 121.705 272.235 131.208 272.235H268.178C277.68 272.235 285.299 265.301 285.299 256.653V170.953C285.299 162.305 277.68 155.371 268.178 155.371ZM216.814 155.371H182.572V139.789H216.814V155.371Z" fill="#27AEE2"/>
</g>
<defs>
<clipPath id="clip0">
<rect width="171.213" height="171.213" fill="white" transform="translate(114.086 113.506)"/>
</clipPath>
</defs>
</svg>
