<svg width="946" height="239" viewBox="0 0 946 239" fill="none" xmlns="http://www.w3.org/2000/svg">
<path d="M288.66 202V132.736C288.66 105.652 272.01 86.116 243.372 86.116C222.726 86.116 210.072 96.55 202.524 109.87V88.78H191.646V202H202.524V136.51C202.524 112.978 219.618 96.106 241.818 96.106C264.684 96.106 277.782 111.424 277.782 134.734V202H288.66ZM340.226 202V39.94H329.348V202H340.226ZM483.644 88.78H471.656L430.808 190.012L383.744 88.78H371.09L425.48 201.334C417.044 221.092 409.274 227.974 397.508 227.974C389.072 227.974 384.188 226.642 378.194 223.756L374.42 233.302C381.968 236.632 388.184 238.186 396.842 238.186C413.048 238.186 424.592 229.75 434.582 205.996L483.644 88.78Z" fill="black"/>
<path d="M169.48 137C169.72 136.76 169.72 136.76 169.48 136.52C169.48 90.68 136.12 50.12 85.24 50.12C34.36 50.12 0.520002 91.16 0.520002 137V137.48C0.520002 183.32 33.88 223.88 84.76 223.88C135.64 223.88 169.48 182.84 169.48 137ZM156.52 137.48C156.52 179 126.76 212.6 85.24 212.6C43.72 212.6 13.48 178.52 13.48 137V136.52C13.48 95 43.24 61.4 84.76 61.4C126.28 61.4 156.52 95.48 156.52 137V137.48Z" fill="black"/>
<path d="M650.84 27.71C650.84 25.9367 650.65 24.0367 650.27 22.01C650.017 19.9833 649.13 18.1467 647.61 16.5C646.217 14.8533 644 13.5233 640.96 12.51C637.92 11.37 633.74 10.8 628.42 10.8C611.067 10.8 594.41 12.89 578.45 17.07C562.49 21.25 547.607 26.6333 533.8 33.22C520.12 39.68 507.707 46.9633 496.56 55.07C485.287 63.05 475.723 70.9033 467.87 78.63C459.89 86.3567 453.747 93.5133 449.44 100.1C445.133 106.56 442.98 111.5 442.98 114.92C442.98 116.693 442.03 117.707 440.13 117.96C438.23 118.087 436.14 117.517 433.86 116.25C431.58 114.983 429.49 113.147 427.59 110.74C425.69 108.207 424.74 105.167 424.74 101.62C424.74 98.96 426.703 94.6533 430.63 88.7C434.557 82.62 440.383 75.8433 448.11 68.37C455.837 60.8967 465.4 53.17 476.8 45.19C488.073 37.21 501.12 29.9267 515.94 23.34C530.76 16.7533 547.227 11.37 565.34 7.18999C583.58 2.88333 603.34 0.730001 624.62 0.730001C630.7 0.730001 636.59 1.17333 642.29 2.06C647.99 2.94666 653.057 4.40333 657.49 6.43C661.923 8.45666 665.47 11.1167 668.13 14.41C670.917 17.7033 672.31 21.6933 672.31 26.38C672.31 30.4333 671.233 36.3867 669.08 44.24C666.927 52.0933 663.76 61.0867 659.58 71.22C655.527 81.2267 650.46 91.9933 644.38 103.52C638.427 115.047 631.587 126.573 623.86 138.1C616.133 149.5 607.52 160.457 598.02 170.97C588.647 181.483 578.513 190.793 567.62 198.9C556.727 207.007 545.137 213.467 532.85 218.28C520.563 223.093 507.643 225.5 494.09 225.5C485.983 225.5 478.763 224.297 472.43 221.89C465.97 219.483 460.587 216.127 456.28 211.82C451.847 207.64 448.49 202.637 446.21 196.81C443.93 190.857 442.79 184.333 442.79 177.24C442.79 170.273 444.627 163.307 448.3 156.34C451.847 149.247 456.28 142.913 461.6 137.34C466.92 131.767 472.683 127.27 478.89 123.85C484.97 120.303 490.607 118.53 495.8 118.53C499.6 118.53 502.577 119.037 504.73 120.05C506.757 120.937 508.277 122.013 509.29 123.28C510.303 124.547 510.873 125.877 511 127.27C511.253 128.537 511.38 129.613 511.38 130.5C511.38 131.387 511.063 131.957 510.43 132.21C509.67 132.463 508.72 132.59 507.58 132.59C506.44 132.59 505.173 132.527 503.78 132.4C502.26 132.147 500.74 132.02 499.22 132.02C494.533 132.02 489.657 133.477 484.59 136.39C479.397 139.303 474.71 143.167 470.53 147.98C466.223 152.793 462.677 158.24 459.89 164.32C457.103 170.4 455.71 176.67 455.71 183.13C455.71 187.943 456.597 192.567 458.37 197C460.143 201.307 462.803 205.107 466.35 208.4C469.77 211.82 474.013 214.543 479.08 216.57C484.147 218.597 489.973 219.61 496.56 219.61C504.92 219.61 513.533 217.267 522.4 212.58C531.267 208.02 540.07 201.877 548.81 194.15C557.55 186.423 566.163 177.557 574.65 167.55C583.137 157.417 591.117 146.903 598.59 136.01C606.19 124.99 613.157 113.907 619.49 102.76C625.95 91.6133 631.46 81.1633 636.02 71.41C640.707 61.6567 644.317 52.98 646.85 45.38C649.51 37.6533 650.84 31.7633 650.84 27.71ZM761.595 107.89C762.228 107.003 762.925 106.497 763.685 106.37C764.445 106.243 765.078 106.307 765.585 106.56C766.218 106.813 766.598 107.32 766.725 108.08C766.978 108.713 766.852 109.41 766.345 110.17C763.812 113.843 760.835 117.58 757.415 121.38C754.122 125.18 750.448 128.917 746.395 132.59C742.468 136.137 738.225 139.43 733.665 142.47C729.105 145.383 724.292 147.79 719.225 149.69C715.425 155.77 711.118 161.66 706.305 167.36C701.618 173.06 696.678 178.127 691.485 182.56C686.418 186.867 681.225 190.35 675.905 193.01C670.585 195.67 665.328 197 660.135 197C658.362 197 656.208 196.81 653.675 196.43C651.268 196.05 648.925 195.037 646.645 193.39C644.365 191.617 642.402 189.02 640.755 185.6C639.108 182.18 638.285 177.43 638.285 171.35C638.285 167.423 638.792 163.053 639.805 158.24C640.945 153.3 642.402 148.36 644.175 143.42C645.948 138.353 647.975 133.477 650.255 128.79C652.535 124.103 654.878 119.923 657.285 116.25C659.818 112.577 662.288 109.663 664.695 107.51C667.228 105.23 669.508 104.09 671.535 104.09C673.942 104.09 675.842 104.217 677.235 104.47C678.755 104.597 680.022 104.787 681.035 105.04C684.708 98.3267 689.585 93.1333 695.665 89.46C701.872 85.66 708.775 83.76 716.375 83.76C720.428 83.76 723.722 84.4567 726.255 85.85C728.915 87.2433 731.005 89.0167 732.525 91.17C734.045 93.1967 735.122 95.54 735.755 98.2C736.388 100.733 736.705 103.14 736.705 105.42C736.705 109.6 735.692 114.667 733.665 120.62C731.638 126.447 728.915 132.653 725.495 139.24C729.422 137.467 733.158 135.313 736.705 132.78C740.252 130.247 743.545 127.587 746.585 124.8C749.752 121.887 752.538 118.973 754.945 116.06C757.478 113.147 759.695 110.423 761.595 107.89ZM667.925 183.7C671.218 183.7 674.575 182.877 677.995 181.23C681.415 179.583 684.772 177.367 688.065 174.58C691.358 171.793 694.588 168.563 697.755 164.89C700.922 161.217 703.962 157.29 706.875 153.11C704.215 153.49 701.428 153.68 698.515 153.68C693.448 153.68 689.332 152.983 686.165 151.59C683.125 150.07 680.782 148.17 679.135 145.89C677.488 143.61 676.348 141.013 675.715 138.1C675.208 135.187 674.955 132.21 674.955 129.17C674.955 128.917 674.955 128.6 674.955 128.22C675.082 127.84 675.145 127.523 675.145 127.27C673.118 130.437 671.028 133.857 668.875 137.53C666.848 141.077 664.948 144.75 663.175 148.55C661.402 152.35 659.945 156.15 658.805 159.95C657.665 163.75 657.095 167.423 657.095 170.97C657.095 173.377 657.412 175.403 658.045 177.05C658.805 178.57 659.692 179.837 660.705 180.85C661.845 181.863 663.048 182.623 664.315 183.13C665.582 183.51 666.785 183.7 667.925 183.7ZM713.145 142.85C717.452 135.503 720.872 128.41 723.405 121.57C725.938 114.73 727.205 109.283 727.205 105.23C727.205 102.317 726.508 100.037 725.115 98.39C723.848 96.6167 721.695 95.73 718.655 95.73C714.982 95.73 711.435 96.87 708.015 99.15C704.722 101.303 701.808 104.027 699.275 107.32C696.742 110.487 694.715 113.907 693.195 117.58C691.802 121.127 691.105 124.357 691.105 127.27C691.105 130.183 691.548 132.653 692.435 134.68C693.448 136.707 694.715 138.417 696.235 139.81C697.755 141.077 699.402 142.027 701.175 142.66C703.075 143.167 704.848 143.42 706.495 143.42C708.775 143.42 710.992 143.23 713.145 142.85ZM861.164 107.89C861.797 107.13 862.494 106.687 863.254 106.56C864.014 106.307 864.647 106.37 865.154 106.75C865.787 107.003 866.167 107.447 866.294 108.08C866.547 108.713 866.421 109.41 865.914 110.17C863.634 113.337 860.657 117.707 856.984 123.28C853.437 128.853 849.194 134.87 844.254 141.33C839.314 147.663 833.677 154.187 827.344 160.9C821.137 167.487 814.234 173.44 806.634 178.76C799.161 184.08 790.991 188.45 782.124 191.87C773.384 195.29 763.947 197 753.814 197C750.521 197 747.544 196.113 744.884 194.34C742.351 192.44 740.197 190.033 738.424 187.12C736.651 184.207 735.257 180.85 734.244 177.05C733.357 173.25 732.914 169.323 732.914 165.27C732.914 161.09 733.991 155.897 736.144 149.69C738.424 143.483 741.337 136.707 744.884 129.36C748.557 122.013 752.674 114.35 757.234 106.37C761.921 98.2633 766.671 90.22 771.484 82.24C776.297 74.1333 780.984 66.28 785.544 58.68C790.231 51.08 794.347 44.1133 797.894 37.78C801.567 31.32 804.481 25.7467 806.634 21.06C808.914 16.2467 810.054 12.6367 810.054 10.23C810.054 9.59666 810.941 9.46999 812.714 9.84999C814.614 10.23 816.641 11.1167 818.794 12.51C820.947 13.7767 822.911 15.6133 824.684 18.02C826.584 20.3 827.534 23.0233 827.534 26.19C827.534 27.5833 826.837 29.6733 825.444 32.46C824.051 35.2467 822.214 38.4767 819.934 42.15C817.781 45.8233 815.247 49.8133 812.334 54.12C809.547 58.3 806.697 62.48 803.784 66.66C796.817 76.54 788.901 87.37 780.034 99.15C782.441 96.2367 785.164 93.64 788.204 91.36C790.737 89.46 793.714 87.6867 797.134 86.04C800.681 84.3933 804.544 83.57 808.724 83.57C812.904 83.57 816.261 84.4567 818.794 86.23C821.327 88.0033 823.291 90.22 824.684 92.88C826.077 95.54 827.027 98.5167 827.534 101.81C828.041 104.977 828.294 108.08 828.294 111.12C828.294 116.06 827.344 121.507 825.444 127.46C823.671 133.287 821.137 139.177 817.844 145.13C814.677 151.083 810.941 156.973 806.634 162.8C802.327 168.5 797.641 173.693 792.574 178.38C796.501 177.873 800.681 176.1 805.114 173.06C809.547 169.893 813.981 166.093 818.414 161.66C822.974 157.1 827.471 152.16 831.904 146.84C836.337 141.52 840.391 136.39 844.064 131.45C847.864 126.383 851.221 121.76 854.134 117.58C857.174 113.4 859.517 110.17 861.164 107.89ZM753.814 186.55C755.587 186.55 758.184 185.347 761.604 182.94C765.151 180.533 769.014 177.303 773.194 173.25C777.374 169.07 781.617 164.257 785.924 158.81C790.357 153.363 794.347 147.6 797.894 141.52C801.441 135.313 804.354 128.98 806.634 122.52C808.914 115.933 810.054 109.537 810.054 103.33C810.054 102.19 809.864 100.987 809.484 99.72C809.231 98.3267 808.787 97.06 808.154 95.92C807.647 94.78 806.951 93.8933 806.064 93.26C805.177 92.5 804.101 92.12 802.834 92.12C799.667 92.12 796.057 93.7033 792.004 96.87C787.951 99.91 783.771 103.9 779.464 108.84C775.284 113.78 771.167 119.29 767.114 125.37C763.061 131.45 759.451 137.53 756.284 143.61C753.117 149.563 750.521 155.2 748.494 160.52C746.594 165.713 745.644 169.893 745.644 173.06C745.644 176.733 746.214 179.9 747.354 182.56C748.621 185.22 750.774 186.55 753.814 186.55ZM940.694 107.89C941.327 107.003 942.024 106.497 942.784 106.37C943.544 106.243 944.177 106.307 944.684 106.56C945.317 106.813 945.697 107.32 945.824 108.08C946.077 108.713 945.951 109.41 945.444 110.17C943.164 113.337 940.124 117.707 936.324 123.28C932.651 128.853 928.407 134.87 923.594 141.33C918.907 147.663 913.777 154.187 908.204 160.9C902.631 167.487 896.867 173.44 890.914 178.76C884.961 184.08 878.881 188.45 872.674 191.87C866.467 195.29 860.387 197 854.434 197H851.584C847.404 197 843.794 196.303 840.754 194.91C837.714 193.517 835.181 191.743 833.154 189.59C831.254 187.437 829.861 184.967 828.974 182.18C827.961 179.393 827.454 176.67 827.454 174.01C827.454 171.603 827.834 169.83 828.594 168.69C829.354 167.55 830.177 166.98 831.064 166.98C831.951 166.853 832.774 167.297 833.534 168.31C834.294 169.197 834.674 170.527 834.674 172.3C834.674 175.72 835.751 178.887 837.904 181.8C840.184 184.587 843.984 185.98 849.304 185.98C854.751 185.98 858.741 184.08 861.274 180.28C863.807 176.48 865.391 171.603 866.024 165.65C866.657 159.57 866.594 152.857 865.834 145.51C865.201 138.037 864.251 130.69 862.984 123.47C861.844 116.123 860.704 109.347 859.564 103.14C858.551 96.8067 858.044 91.8033 858.044 88.13C858.044 83.95 858.994 80.0233 860.894 76.35C862.921 72.6767 865.454 69.51 868.494 66.85C871.534 64.0633 874.954 61.91 878.754 60.39C882.554 58.87 886.291 58.11 889.964 58.11C891.737 58.11 893.194 58.5533 894.334 59.44C895.474 60.2 896.044 61.0867 896.044 62.1C896.044 63.62 895.284 65.33 893.764 67.23C892.244 69.0033 890.597 71.03 888.824 73.31C887.051 75.59 885.404 78.1867 883.884 81.1C882.364 84.0133 881.604 87.37 881.604 91.17C881.604 96.87 882.111 102.507 883.124 108.08C884.137 113.653 885.214 119.227 886.354 124.8C887.621 130.247 888.761 135.693 889.774 141.14C890.787 146.46 891.294 151.843 891.294 157.29C891.294 159.443 891.104 161.723 890.724 164.13C890.471 166.41 890.027 168.563 889.394 170.59C892.307 168.183 895.347 165.207 898.514 161.66C901.807 158.113 905.164 154.313 908.584 150.26C912.004 146.207 915.361 142.027 918.654 137.72C921.947 133.413 924.987 129.36 927.774 125.56C930.687 121.633 933.221 118.15 935.374 115.11C937.654 112.07 939.427 109.663 940.694 107.89Z" fill="#27AEE2"/>
<path d="M119.5 114.784H102.5V107.048C102.5 102.755 98.7175 99.3125 94 99.3125H77C72.2825 99.3125 68.5 102.755 68.5 107.048V114.784H51.5C46.7825 114.784 43.0425 118.226 43.0425 122.52L43 165.066C43 169.36 46.7825 172.802 51.5 172.802H119.5C124.218 172.802 128 169.36 128 165.066V122.52C128 118.226 124.218 114.784 119.5 114.784ZM94 114.784H77V107.048H94V114.784Z" fill="#27AEE2"/>
</svg>
